<?xml version="1.0" standalone="no"?>
<!DOCTYPE svg PUBLIC "-//W3C//DTD SVG 20010904//EN"
 "http://www.w3.org/TR/2001/REC-SVG-20010904/DTD/svg10.dtd">
<svg version="1.0" xmlns="http://www.w3.org/2000/svg"
 width="1193.000000pt" height="332.000000pt" viewBox="0 0 1193.000000 332.000000"
 preserveAspectRatio="xMidYMid meet">

<g transform="translate(0.000000,332.000000) scale(0.100000,-0.100000)"
fill="#000000" stroke="none">
<path d="M3068 1983 c-13 -14 -18 -23 -13 -22 16 5 55 -11 55 -22 0 -6 -8 -6
-20 1 -26 14 -26 6 0 -20 12 -12 18 -26 14 -33 -4 -7 -4 -9 1 -5 17 16 13 69
-6 81 -22 14 -26 29 -5 21 7 -3 16 1 19 9 8 22 -21 16 -45 -10z"/>
<path d="M3146 1953 c4 -22 3 -25 -5 -13 -8 12 -11 7 -12 -22 -2 -58 -3 -61
-18 -66 -8 -3 -11 0 -7 7 4 6 3 11 -3 11 -5 0 -13 -4 -16 -10 -3 -5 -1 -10 5
-10 6 0 9 -4 6 -8 -3 -5 1 -9 9 -9 14 0 27 22 44 76 14 43 14 71 1 71 -6 0 -8
-12 -4 -27z"/>
<path d="M2876 1925 c4 -8 8 -15 10 -15 2 0 4 7 4 15 0 8 -4 15 -10 15 -5 0
-7 -7 -4 -15z"/>
<path d="M3035 1929 c-4 -6 -5 -12 -2 -15 2 -3 7 2 10 11 7 17 1 20 -8 4z"/>
<path d="M3058 1885 c-2 -19 0 -35 4 -35 4 0 8 12 8 26 0 16 4 23 11 18 7 -4
10 -1 7 6 -9 28 -26 20 -30 -15z"/>
<path d="M2922 1905 c4 -4 3 -14 -4 -22 -8 -11 -7 -12 6 -7 19 7 21 20 4 30
-7 4 -10 4 -6 -1z"/>
<path d="M2880 1883 c0 -6 8 -17 18 -24 16 -13 16 -13 2 6 -8 11 -16 22 -17
24 -2 2 -3 0 -3 -6z"/>
<path d="M2951 1850 c0 -8 4 -22 9 -30 12 -18 12 -2 0 25 -6 13 -9 15 -9 5z"/>
<path d="M3014 1839 c0 -10 4 -19 8 -19 4 0 8 6 8 14 0 8 -4 17 -8 20 -4 2 -8
-4 -8 -15z"/>
<path d="M2900 1829 c0 -5 5 -7 10 -4 6 3 10 8 10 11 0 2 -4 4 -10 4 -5 0 -10
-5 -10 -11z"/>
<path d="M3054 1805 c-4 -8 -12 -15 -19 -15 -18 0 -38 -27 -30 -40 5 -8 11 -8
21 1 7 6 11 15 8 20 -3 5 -1 9 5 9 6 0 15 9 21 20 6 11 8 20 5 20 -3 0 -8 -7
-11 -15z"/>
<path d="M2920 1806 c0 -2 8 -10 18 -17 15 -13 16 -12 3 4 -13 16 -21 21 -21
13z"/>
<path d="M2847 1489 c4 -15 0 -27 -12 -35 -22 -16 -12 -19 15 -4 18 10 18 44
0 55 -5 3 -6 -5 -3 -16z"/>
<path d="M2790 795 c-190 -27 -348 -73 -525 -153 -90 -41 -172 -92 -147 -92 5
0 65 18 133 40 250 81 413 110 670 117 262 8 482 -17 642 -72 27 -9 51 -15 53
-12 7 7 -32 91 -48 104 -21 18 -209 61 -320 73 -128 13 -340 11 -458 -5z"/>
<path d="M2745 634 c-181 -18 -250 -30 -382 -64 -114 -29 -340 -105 -371 -125
-1 -1 0 -10 4 -19 8 -22 32 -20 95 8 71 31 234 81 329 100 270 55 612 45 956
-28 206 -44 399 -43 529 3 49 18 128 61 122 68 -1 1 -29 -8 -62 -20 -52 -19
-81 -22 -215 -21 -135 1 -175 5 -304 32 -83 18 -191 39 -240 47 -91 14 -386
27 -461 19z"/>
</g>
</svg>
